# xmcd
#
# Track frame offsets: 
#        150
#        22275
#        46125
#        67875
#        88500
#        111975
#        126916
#        148966
#        166891
#
# Disc length: 2556 seconds
#
# Revision: 0
# Processed by: cddbd v1.5.2PL0 Copyright (c) Steve Scherf et al.
# Submitted via: ExactAudioCopy v0.99pb3
#
DISCID=7e09fa09
DTITLE=Keb' Mo' - Philadelphia Folk Festival 1997-08-22
DYEAR=1997
DGENRE=Blues
TTITLE0=Victim Of Comfort
TTITLE1=Perpetual Blues Machine
TTITLE2=That's Not Love
TTITLE3=Am I Wrong
TTITLE4=City Boy
TTITLE5=Angelina
TTITLE6=Every Morning
TTITLE7=You Can Love Yourself
TTITLE8=Hand It Over
EXTD=
EXTT0=
EXTT1=
EXTT2=
EXTT3=
EXTT4=
EXTT5=
EXTT6=
EXTT7=
EXTT8=
PLAYORDER=
